<mxfile host="app.diagrams.net" agent="Mozilla/5.0 (Macintosh; Intel Mac OS X 10_15_7) AppleWebKit/537.36 (KHTML, like Gecko) Chrome/140.0.0.0 Safari/537.36" version="28.2.2">
  <diagram name="Страница — 1" id="5tCdzcLCmoUiRQ9UJjtX">
    <mxGraphModel dx="976" dy="630" grid="1" gridSize="10" guides="1" tooltips="1" connect="1" arrows="1" fold="1" page="1" pageScale="1" pageWidth="827" pageHeight="1169" math="0" shadow="0">
      <root>
        <mxCell id="0" />
        <mxCell id="1" parent="0" />
        <mxCell id="usJaf5t2ZkvXkqVpBnMW-19" style="edgeStyle=orthogonalEdgeStyle;rounded=0;orthogonalLoop=1;jettySize=auto;html=1;exitX=0;exitY=1;exitDx=0;exitDy=0;entryX=0.5;entryY=0;entryDx=0;entryDy=0;" parent="1" source="usJaf5t2ZkvXkqVpBnMW-1" target="usJaf5t2ZkvXkqVpBnMW-16" edge="1">
          <mxGeometry relative="1" as="geometry" />
        </mxCell>
        <mxCell id="usJaf5t2ZkvXkqVpBnMW-21" style="edgeStyle=orthogonalEdgeStyle;rounded=0;orthogonalLoop=1;jettySize=auto;html=1;exitX=1;exitY=1;exitDx=0;exitDy=0;entryX=0.5;entryY=0;entryDx=0;entryDy=0;" parent="1" source="usJaf5t2ZkvXkqVpBnMW-1" target="usJaf5t2ZkvXkqVpBnMW-18" edge="1">
          <mxGeometry relative="1" as="geometry" />
        </mxCell>
        <mxCell id="usJaf5t2ZkvXkqVpBnMW-22" style="edgeStyle=orthogonalEdgeStyle;rounded=0;orthogonalLoop=1;jettySize=auto;html=1;exitX=1;exitY=0;exitDx=0;exitDy=0;" parent="1" source="usJaf5t2ZkvXkqVpBnMW-1" edge="1">
          <mxGeometry relative="1" as="geometry">
            <mxPoint x="230" y="180" as="targetPoint" />
          </mxGeometry>
        </mxCell>
        <mxCell id="usJaf5t2ZkvXkqVpBnMW-25" style="edgeStyle=orthogonalEdgeStyle;rounded=0;orthogonalLoop=1;jettySize=auto;html=1;exitX=0;exitY=0;exitDx=0;exitDy=0;entryX=0.5;entryY=1;entryDx=0;entryDy=0;" parent="1" source="usJaf5t2ZkvXkqVpBnMW-1" target="usJaf5t2ZkvXkqVpBnMW-9" edge="1">
          <mxGeometry relative="1" as="geometry" />
        </mxCell>
        <mxCell id="usJaf5t2ZkvXkqVpBnMW-1" value="Patient" style="rounded=0;whiteSpace=wrap;html=1;" parent="1" vertex="1">
          <mxGeometry x="80" y="200" width="120" height="80" as="geometry" />
        </mxCell>
        <mxCell id="usJaf5t2ZkvXkqVpBnMW-28" value="" style="edgeStyle=orthogonalEdgeStyle;rounded=0;orthogonalLoop=1;jettySize=auto;html=1;" parent="1" source="usJaf5t2ZkvXkqVpBnMW-4" target="usJaf5t2ZkvXkqVpBnMW-1" edge="1">
          <mxGeometry relative="1" as="geometry" />
        </mxCell>
        <mxCell id="usJaf5t2ZkvXkqVpBnMW-4" value="PatientID" style="rounded=0;whiteSpace=wrap;html=1;" parent="1" vertex="1">
          <mxGeometry x="200" y="140" width="60" height="40" as="geometry" />
        </mxCell>
        <mxCell id="usJaf5t2ZkvXkqVpBnMW-8" value="City" style="rounded=0;whiteSpace=wrap;html=1;" parent="1" vertex="1">
          <mxGeometry x="110" y="140" width="70" height="40" as="geometry" />
        </mxCell>
        <mxCell id="usJaf5t2ZkvXkqVpBnMW-9" value="Zip" style="rounded=0;whiteSpace=wrap;html=1;" parent="1" vertex="1">
          <mxGeometry x="30" y="140" width="60" height="40" as="geometry" />
        </mxCell>
        <mxCell id="usJaf5t2ZkvXkqVpBnMW-16" value="Street" style="rounded=0;whiteSpace=wrap;html=1;" parent="1" vertex="1">
          <mxGeometry x="30" y="300" width="60" height="40" as="geometry" />
        </mxCell>
        <mxCell id="usJaf5t2ZkvXkqVpBnMW-20" style="edgeStyle=orthogonalEdgeStyle;rounded=0;orthogonalLoop=1;jettySize=auto;html=1;" parent="1" source="usJaf5t2ZkvXkqVpBnMW-17" edge="1">
          <mxGeometry relative="1" as="geometry">
            <mxPoint x="140" y="290" as="targetPoint" />
          </mxGeometry>
        </mxCell>
        <mxCell id="usJaf5t2ZkvXkqVpBnMW-17" value="Address" style="rounded=0;whiteSpace=wrap;html=1;" parent="1" vertex="1">
          <mxGeometry x="110" y="300" width="60" height="40" as="geometry" />
        </mxCell>
        <mxCell id="usJaf5t2ZkvXkqVpBnMW-18" value="State" style="rounded=0;whiteSpace=wrap;html=1;" parent="1" vertex="1">
          <mxGeometry x="200" y="300" width="60" height="40" as="geometry" />
        </mxCell>
        <mxCell id="usJaf5t2ZkvXkqVpBnMW-24" style="edgeStyle=orthogonalEdgeStyle;rounded=0;orthogonalLoop=1;jettySize=auto;html=1;exitX=0.5;exitY=0;exitDx=0;exitDy=0;entryX=0.426;entryY=1;entryDx=0;entryDy=0;entryPerimeter=0;" parent="1" source="usJaf5t2ZkvXkqVpBnMW-1" target="usJaf5t2ZkvXkqVpBnMW-8" edge="1">
          <mxGeometry relative="1" as="geometry" />
        </mxCell>
        <mxCell id="usJaf5t2ZkvXkqVpBnMW-35" style="edgeStyle=orthogonalEdgeStyle;rounded=0;orthogonalLoop=1;jettySize=auto;html=1;exitX=0;exitY=0;exitDx=0;exitDy=0;entryX=1;entryY=1;entryDx=0;entryDy=0;" parent="1" source="usJaf5t2ZkvXkqVpBnMW-27" target="usJaf5t2ZkvXkqVpBnMW-31" edge="1">
          <mxGeometry relative="1" as="geometry" />
        </mxCell>
        <mxCell id="usJaf5t2ZkvXkqVpBnMW-36" style="edgeStyle=orthogonalEdgeStyle;rounded=0;orthogonalLoop=1;jettySize=auto;html=1;exitX=0.5;exitY=0;exitDx=0;exitDy=0;entryX=0.5;entryY=1;entryDx=0;entryDy=0;" parent="1" source="usJaf5t2ZkvXkqVpBnMW-27" target="usJaf5t2ZkvXkqVpBnMW-30" edge="1">
          <mxGeometry relative="1" as="geometry" />
        </mxCell>
        <mxCell id="usJaf5t2ZkvXkqVpBnMW-37" style="edgeStyle=orthogonalEdgeStyle;rounded=0;orthogonalLoop=1;jettySize=auto;html=1;exitX=1;exitY=0;exitDx=0;exitDy=0;entryX=0;entryY=1;entryDx=0;entryDy=0;" parent="1" source="usJaf5t2ZkvXkqVpBnMW-27" target="usJaf5t2ZkvXkqVpBnMW-29" edge="1">
          <mxGeometry relative="1" as="geometry" />
        </mxCell>
        <mxCell id="usJaf5t2ZkvXkqVpBnMW-39" style="edgeStyle=orthogonalEdgeStyle;rounded=0;orthogonalLoop=1;jettySize=auto;html=1;exitX=0.5;exitY=1;exitDx=0;exitDy=0;entryX=0.5;entryY=0;entryDx=0;entryDy=0;" parent="1" source="usJaf5t2ZkvXkqVpBnMW-27" edge="1">
          <mxGeometry relative="1" as="geometry">
            <mxPoint x="500" y="300" as="targetPoint" />
          </mxGeometry>
        </mxCell>
        <mxCell id="usJaf5t2ZkvXkqVpBnMW-27" value="Doctor" style="rounded=0;whiteSpace=wrap;html=1;" parent="1" vertex="1">
          <mxGeometry x="440" y="200" width="120" height="80" as="geometry" />
        </mxCell>
        <mxCell id="usJaf5t2ZkvXkqVpBnMW-29" value="DoctorID" style="rounded=0;whiteSpace=wrap;html=1;" parent="1" vertex="1">
          <mxGeometry x="580" y="140" width="60" height="40" as="geometry" />
        </mxCell>
        <mxCell id="usJaf5t2ZkvXkqVpBnMW-30" value="Specialization" style="rounded=0;whiteSpace=wrap;html=1;" parent="1" vertex="1">
          <mxGeometry x="460" y="140" width="80" height="40" as="geometry" />
        </mxCell>
        <mxCell id="usJaf5t2ZkvXkqVpBnMW-31" value="Phone" style="rounded=0;whiteSpace=wrap;html=1;" parent="1" vertex="1">
          <mxGeometry x="360" y="140" width="60" height="40" as="geometry" />
        </mxCell>
        <mxCell id="usJaf5t2ZkvXkqVpBnMW-34" value="OfficeLocation" style="rounded=0;whiteSpace=wrap;html=1;" parent="1" vertex="1">
          <mxGeometry x="460" y="300" width="80" height="40" as="geometry" />
        </mxCell>
        <mxCell id="usJaf5t2ZkvXkqVpBnMW-45" style="edgeStyle=orthogonalEdgeStyle;rounded=0;orthogonalLoop=1;jettySize=auto;html=1;exitX=1;exitY=0;exitDx=0;exitDy=0;entryX=0.25;entryY=1;entryDx=0;entryDy=0;" parent="1" source="usJaf5t2ZkvXkqVpBnMW-43" target="usJaf5t2ZkvXkqVpBnMW-44" edge="1">
          <mxGeometry relative="1" as="geometry" />
        </mxCell>
        <mxCell id="usJaf5t2ZkvXkqVpBnMW-50" style="edgeStyle=orthogonalEdgeStyle;rounded=0;orthogonalLoop=1;jettySize=auto;html=1;exitX=0.5;exitY=1;exitDx=0;exitDy=0;entryX=0.5;entryY=0;entryDx=0;entryDy=0;" parent="1" source="usJaf5t2ZkvXkqVpBnMW-43" target="usJaf5t2ZkvXkqVpBnMW-48" edge="1">
          <mxGeometry relative="1" as="geometry" />
        </mxCell>
        <mxCell id="usJaf5t2ZkvXkqVpBnMW-43" value="Department" style="rounded=0;whiteSpace=wrap;html=1;" parent="1" vertex="1">
          <mxGeometry x="580" y="430" width="70" height="40" as="geometry" />
        </mxCell>
        <mxCell id="usJaf5t2ZkvXkqVpBnMW-44" value="Location" style="rounded=0;whiteSpace=wrap;html=1;" parent="1" vertex="1">
          <mxGeometry x="660" y="370" width="80" height="40" as="geometry" />
        </mxCell>
        <mxCell id="usJaf5t2ZkvXkqVpBnMW-46" value="Name" style="rounded=0;whiteSpace=wrap;html=1;" parent="1" vertex="1">
          <mxGeometry x="480" y="370" width="80" height="40" as="geometry" />
        </mxCell>
        <mxCell id="usJaf5t2ZkvXkqVpBnMW-47" style="edgeStyle=orthogonalEdgeStyle;rounded=0;orthogonalLoop=1;jettySize=auto;html=1;exitX=0;exitY=0;exitDx=0;exitDy=0;entryX=0.823;entryY=1.06;entryDx=0;entryDy=0;entryPerimeter=0;" parent="1" source="usJaf5t2ZkvXkqVpBnMW-43" target="usJaf5t2ZkvXkqVpBnMW-46" edge="1">
          <mxGeometry relative="1" as="geometry" />
        </mxCell>
        <mxCell id="usJaf5t2ZkvXkqVpBnMW-48" value="Code" style="rounded=0;whiteSpace=wrap;html=1;" parent="1" vertex="1">
          <mxGeometry x="575" y="500" width="80" height="40" as="geometry" />
        </mxCell>
        <mxCell id="usJaf5t2ZkvXkqVpBnMW-78" style="edgeStyle=orthogonalEdgeStyle;rounded=0;orthogonalLoop=1;jettySize=auto;html=1;exitX=0;exitY=0;exitDx=0;exitDy=0;entryX=0.75;entryY=1;entryDx=0;entryDy=0;" parent="1" source="usJaf5t2ZkvXkqVpBnMW-51" target="usJaf5t2ZkvXkqVpBnMW-76" edge="1">
          <mxGeometry relative="1" as="geometry" />
        </mxCell>
        <mxCell id="usJaf5t2ZkvXkqVpBnMW-79" style="edgeStyle=orthogonalEdgeStyle;rounded=0;orthogonalLoop=1;jettySize=auto;html=1;exitX=1;exitY=0;exitDx=0;exitDy=0;entryX=0;entryY=1;entryDx=0;entryDy=0;" parent="1" source="usJaf5t2ZkvXkqVpBnMW-51" target="usJaf5t2ZkvXkqVpBnMW-77" edge="1">
          <mxGeometry relative="1" as="geometry" />
        </mxCell>
        <mxCell id="usJaf5t2ZkvXkqVpBnMW-80" style="edgeStyle=orthogonalEdgeStyle;rounded=0;orthogonalLoop=1;jettySize=auto;html=1;exitX=0.5;exitY=1;exitDx=0;exitDy=0;entryX=0.5;entryY=0;entryDx=0;entryDy=0;" parent="1" source="usJaf5t2ZkvXkqVpBnMW-51" target="usJaf5t2ZkvXkqVpBnMW-75" edge="1">
          <mxGeometry relative="1" as="geometry" />
        </mxCell>
        <mxCell id="usJaf5t2ZkvXkqVpBnMW-51" value="Prescription" style="rounded=0;whiteSpace=wrap;html=1;" parent="1" vertex="1">
          <mxGeometry x="350" y="584" width="90" height="60" as="geometry" />
        </mxCell>
        <mxCell id="usJaf5t2ZkvXkqVpBnMW-62" style="edgeStyle=orthogonalEdgeStyle;rounded=0;orthogonalLoop=1;jettySize=auto;html=1;exitX=1;exitY=0;exitDx=0;exitDy=0;entryX=0.5;entryY=1;entryDx=0;entryDy=0;" parent="1" source="usJaf5t2ZkvXkqVpBnMW-52" target="usJaf5t2ZkvXkqVpBnMW-61" edge="1">
          <mxGeometry relative="1" as="geometry" />
        </mxCell>
        <mxCell id="usJaf5t2ZkvXkqVpBnMW-63" style="edgeStyle=orthogonalEdgeStyle;rounded=0;orthogonalLoop=1;jettySize=auto;html=1;exitX=0;exitY=0;exitDx=0;exitDy=0;entryX=0.5;entryY=1;entryDx=0;entryDy=0;" parent="1" source="usJaf5t2ZkvXkqVpBnMW-52" target="usJaf5t2ZkvXkqVpBnMW-60" edge="1">
          <mxGeometry relative="1" as="geometry" />
        </mxCell>
        <mxCell id="usJaf5t2ZkvXkqVpBnMW-64" style="edgeStyle=orthogonalEdgeStyle;rounded=0;orthogonalLoop=1;jettySize=auto;html=1;exitX=0.5;exitY=1;exitDx=0;exitDy=0;entryX=0.5;entryY=0;entryDx=0;entryDy=0;" parent="1" source="usJaf5t2ZkvXkqVpBnMW-52" target="usJaf5t2ZkvXkqVpBnMW-59" edge="1">
          <mxGeometry relative="1" as="geometry" />
        </mxCell>
        <mxCell id="usJaf5t2ZkvXkqVpBnMW-66" style="edgeStyle=orthogonalEdgeStyle;rounded=0;orthogonalLoop=1;jettySize=auto;html=1;exitX=1;exitY=0.5;exitDx=0;exitDy=0;entryX=0.5;entryY=1;entryDx=0;entryDy=0;" parent="1" source="usJaf5t2ZkvXkqVpBnMW-52" target="usJaf5t2ZkvXkqVpBnMW-65" edge="1">
          <mxGeometry relative="1" as="geometry" />
        </mxCell>
        <mxCell id="usJaf5t2ZkvXkqVpBnMW-52" value="Appointment" style="rounded=0;whiteSpace=wrap;html=1;" parent="1" vertex="1">
          <mxGeometry x="90" y="470" width="80" height="60" as="geometry" />
        </mxCell>
        <mxCell id="usJaf5t2ZkvXkqVpBnMW-58" value="" style="endArrow=classic;startArrow=classic;html=1;rounded=0;entryX=0;entryY=0.5;entryDx=0;entryDy=0;exitX=1;exitY=0.5;exitDx=0;exitDy=0;" parent="1" source="usJaf5t2ZkvXkqVpBnMW-1" target="usJaf5t2ZkvXkqVpBnMW-27" edge="1">
          <mxGeometry width="50" height="50" relative="1" as="geometry">
            <mxPoint x="310" y="270" as="sourcePoint" />
            <mxPoint x="360" y="220" as="targetPoint" />
          </mxGeometry>
        </mxCell>
        <mxCell id="usJaf5t2ZkvXkqVpBnMW-59" value="Notes" style="rounded=0;whiteSpace=wrap;html=1;" parent="1" vertex="1">
          <mxGeometry x="100" y="550" width="60" height="40" as="geometry" />
        </mxCell>
        <mxCell id="usJaf5t2ZkvXkqVpBnMW-60" value="DoctorID" style="rounded=0;whiteSpace=wrap;html=1;" parent="1" vertex="1">
          <mxGeometry x="30" y="410" width="60" height="40" as="geometry" />
        </mxCell>
        <mxCell id="usJaf5t2ZkvXkqVpBnMW-61" value="PatientID" style="rounded=0;whiteSpace=wrap;html=1;" parent="1" vertex="1">
          <mxGeometry x="160" y="410" width="60" height="40" as="geometry" />
        </mxCell>
        <mxCell id="usJaf5t2ZkvXkqVpBnMW-65" value="LINK" style="ellipse;whiteSpace=wrap;html=1;" parent="1" vertex="1">
          <mxGeometry x="340" y="340" width="56" height="50" as="geometry" />
        </mxCell>
        <mxCell id="usJaf5t2ZkvXkqVpBnMW-69" value="" style="endArrow=classic;html=1;rounded=0;exitX=0.714;exitY=-0.01;exitDx=0;exitDy=0;exitPerimeter=0;" parent="1" source="usJaf5t2ZkvXkqVpBnMW-65" edge="1">
          <mxGeometry width="50" height="50" relative="1" as="geometry">
            <mxPoint x="389" y="330" as="sourcePoint" />
            <mxPoint x="439" y="280" as="targetPoint" />
          </mxGeometry>
        </mxCell>
        <mxCell id="usJaf5t2ZkvXkqVpBnMW-70" value="" style="endArrow=classic;html=1;rounded=0;exitX=0.714;exitY=-0.01;exitDx=0;exitDy=0;exitPerimeter=0;entryX=1;entryY=0.75;entryDx=0;entryDy=0;" parent="1" target="usJaf5t2ZkvXkqVpBnMW-1" edge="1">
          <mxGeometry width="50" height="50" relative="1" as="geometry">
            <mxPoint x="360" y="340" as="sourcePoint" />
            <mxPoint x="419" y="280" as="targetPoint" />
          </mxGeometry>
        </mxCell>
        <mxCell id="usJaf5t2ZkvXkqVpBnMW-73" style="edgeStyle=orthogonalEdgeStyle;rounded=0;orthogonalLoop=1;jettySize=auto;html=1;exitX=0.5;exitY=1;exitDx=0;exitDy=0;" parent="1" source="usJaf5t2ZkvXkqVpBnMW-51" target="usJaf5t2ZkvXkqVpBnMW-51" edge="1">
          <mxGeometry relative="1" as="geometry" />
        </mxCell>
        <mxCell id="usJaf5t2ZkvXkqVpBnMW-75" value="Medication" style="rounded=0;whiteSpace=wrap;html=1;" parent="1" vertex="1">
          <mxGeometry x="370" y="670" width="60" height="40" as="geometry" />
        </mxCell>
        <mxCell id="usJaf5t2ZkvXkqVpBnMW-76" value="Instructions" style="rounded=0;whiteSpace=wrap;html=1;" parent="1" vertex="1">
          <mxGeometry x="280" y="520" width="70" height="40" as="geometry" />
        </mxCell>
        <mxCell id="usJaf5t2ZkvXkqVpBnMW-77" value="Dosage" style="rounded=0;whiteSpace=wrap;html=1;" parent="1" vertex="1">
          <mxGeometry x="450" y="520" width="70" height="40" as="geometry" />
        </mxCell>
        <mxCell id="usJaf5t2ZkvXkqVpBnMW-81" value="" style="endArrow=classic;startArrow=classic;html=1;rounded=0;exitX=0.5;exitY=0;exitDx=0;exitDy=0;entryX=1;entryY=1;entryDx=0;entryDy=0;" parent="1" source="usJaf5t2ZkvXkqVpBnMW-51" target="usJaf5t2ZkvXkqVpBnMW-65" edge="1">
          <mxGeometry width="50" height="50" relative="1" as="geometry">
            <mxPoint x="410" y="440" as="sourcePoint" />
            <mxPoint x="460" y="390" as="targetPoint" />
          </mxGeometry>
        </mxCell>
      </root>
    </mxGraphModel>
  </diagram>
</mxfile>
